<svg version="1.1" id="Capa_1" xmlns="http://www.w3.org/2000/svg" xmlns:xlink="http://www.w3.org/1999/xlink" 
	 width="800px" height="800px" viewBox="0 0 452.392 452.393"
	 xml:space="preserve">
<g>
	<g id="Layer_8_23_">
		<path d="M406.657,149.964H122.883l271.078-78.849c5.842-1.699,9.224-7.841,7.517-13.686L387.092,7.957
			c-1.694-5.844-7.834-9.215-13.68-7.518L42.666,96.647c-5.844,1.699-9.217,7.839-7.52,13.685l14.39,49.47
			c0.353,1.212,0.936,2.293,1.632,3.267v49.456c0,6.086,4.951,11.04,11.042,11.04h7.356v219.999c0,4.879,3.962,8.829,8.832,8.829
			h312.062c4.87,0,8.83-3.955,8.83-8.829V223.565h7.354c6.085,0,11.043-4.954,11.043-11.04v-51.521
			C417.699,154.916,412.741,149.964,406.657,149.964z M259.985,154.38h35.337l-35.224,64.769h-35.33L259.985,154.38z
			 M164.308,154.38h35.333l-35.226,64.769h-35.331L164.308,154.38z M321.548,20.125l51.907,52.35l-33.913,9.87l-51.92-52.354
			L321.548,20.125z M233.915,45.613l51.915,52.353l-33.923,9.866l-51.924-52.351L233.915,45.613z M47.035,135.395l-7.647-26.296
			c-1.021-3.508,1.008-7.19,4.51-8.208l9.805-2.848l51.489,51.927H62.21c-0.225,0-0.439,0.057-0.655,0.068L47.035,135.395z
			 M91.889,154.38l-20.194,5.877l-1.665-1.674l2.282-4.203H91.889z M72.419,219.149H62.214c-3.653,0-6.629-2.97-6.629-6.624v-27.39
			l10.083-18.528l41.961-12.21L72.419,219.149z M142.034,72.341l51.916,52.351l-33.923,9.869L108.11,82.207L142.034,72.341z
			 M356.75,347.402H110.937v-14.244H356.75V347.402z M356.75,287.045H110.937v-14.237H356.75V287.045z M351.36,219.149h-35.331
			l35.216-64.769h35.339L351.36,219.149z"/>
	</g>
</g>
</svg>